<svg xmlns="http://www.w3.org/2000/svg" viewBox="0 0 800 1000" width="100%" height="100%" preserveAspectRatio="xMidYMid meet" font-family="system-ui, -apple-system, 'Segoe UI', Roboto, sans-serif">
  <defs>
    <!-- Background gradient -->
    <radialGradient id="bgGrad" cx="50%" cy="40%" r="80%">
      <stop offset="0%" stop-color="#1a1f2e"/>
      <stop offset="60%" stop-color="#0c1018"/>
      <stop offset="100%" stop-color="#05080d"/>
    </radialGradient>

    <!-- Glass card gradient -->
    <linearGradient id="glassGrad" x1="0%" y1="0%" x2="0%" y2="100%">
      <stop offset="0%" stop-color="#ffffff" stop-opacity="0.08"/>
      <stop offset="50%" stop-color="#ffffff" stop-opacity="0.04"/>
      <stop offset="100%" stop-color="#ffffff" stop-opacity="0.02"/>
    </linearGradient>

    <!-- Central orchestrator glow -->
    <radialGradient id="coreGrad" cx="50%" cy="50%" r="50%">
      <stop offset="0%" stop-color="#5a7fb8" stop-opacity="0.35"/>
      <stop offset="60%" stop-color="#2a3a5f" stop-opacity="0.15"/>
      <stop offset="100%" stop-color="#1a2540" stop-opacity="0.05"/>
    </radialGradient>

    <!-- Icon container gradient -->
    <linearGradient id="iconBg" x1="0%" y1="0%" x2="0%" y2="100%">
      <stop offset="0%" stop-color="#2a3344" stop-opacity="0.9"/>
      <stop offset="100%" stop-color="#1a2030" stop-opacity="0.9"/>
    </linearGradient>

    <!-- Glow filters -->
    <filter id="softGlow" x="-50%" y="-50%" width="200%" height="200%">
      <feGaussianBlur stdDeviation="2" result="blur"/>
      <feMerge>
        <feMergeNode in="blur"/>
        <feMergeNode in="SourceGraphic"/>
      </feMerge>
    </filter>

    <filter id="strongGlow" x="-50%" y="-50%" width="200%" height="200%">
      <feGaussianBlur stdDeviation="5" result="blur"/>
      <feMerge>
        <feMergeNode in="blur"/>
        <feMergeNode in="SourceGraphic"/>
      </feMerge>
    </filter>

    <filter id="lineGlow" x="-50%" y="-50%" width="200%" height="200%">
      <feGaussianBlur stdDeviation="1.5" result="blur"/>
      <feMerge>
        <feMergeNode in="blur"/>
        <feMergeNode in="SourceGraphic"/>
      </feMerge>
    </filter>

    <!-- Circuit pattern for core -->
    <pattern id="circuitPattern" width="40" height="40" patternUnits="userSpaceOnUse">
      <path d="M 20 0 L 20 10 M 0 20 L 10 20 M 30 20 L 40 20 M 20 30 L 20 40" stroke="#5a7fb8" stroke-width="0.5" fill="none" opacity="0.3"/>
      <circle cx="20" cy="20" r="1" fill="#5a7fb8" opacity="0.4"/>
    </pattern>

    <!-- Star dust -->
    <pattern id="stars" width="150" height="150" patternUnits="userSpaceOnUse">
      <circle cx="20" cy="40" r="0.6" fill="#ffffff" opacity="0.4"/>
      <circle cx="100" cy="20" r="0.4" fill="#ffffff" opacity="0.3"/>
      <circle cx="130" cy="100" r="0.5" fill="#ffffff" opacity="0.35"/>
      <circle cx="60" cy="120" r="0.3" fill="#ffffff" opacity="0.3"/>
      <circle cx="40" cy="90" r="0.5" fill="#ffffff" opacity="0.3"/>
    </pattern>

    <!-- Connection line gradient -->
    <linearGradient id="connGrad" x1="0%" y1="0%" x2="100%" y2="0%">
      <stop offset="0%" stop-color="#ffffff" stop-opacity="0.15"/>
      <stop offset="50%" stop-color="#ffffff" stop-opacity="0.6"/>
      <stop offset="100%" stop-color="#ffffff" stop-opacity="0.15"/>
    </linearGradient>
  </defs>

  <!-- Background -->
  <rect width="800" height="1000" fill="url(#bgGrad)"/>
  <rect width="800" height="1000" fill="url(#stars)" opacity="0.5"/>

  <!-- ============ CONNECTION LINES (drawn first, behind nodes) ============ -->

  <!-- Chat Memory Manager → Core -->
  <g opacity="0">
    <animate attributeName="opacity" values="0;1" dur="0.8s" begin="0.3s" fill="freeze"/>
    <path d="M 175 310 L 280 310" fill="none" stroke="#ffffff" stroke-width="1" stroke-opacity="0.4" stroke-dasharray="400" stroke-dashoffset="400" filter="url(#lineGlow)">
      <animate attributeName="stroke-dashoffset" from="400" to="0" dur="0.8s" begin="0.3s" fill="freeze"/>
    </path>
    <circle cx="175" cy="310" r="2.5" fill="#ffffff" opacity="0.8"/>
    <circle cx="280" cy="310" r="2.5" fill="#ffffff" opacity="0.8"/>
    <text x="227" y="300" fill="#a8b8d0" font-size="10" text-anchor="middle">Contextual</text>
    <text x="227" y="313" fill="#a8b8d0" font-size="10" text-anchor="middle">History</text>
  </g>

  <!-- Core → Faster Answers -->
  <g opacity="0">
    <animate attributeName="opacity" values="0;1" dur="0.8s" begin="0.5s" fill="freeze"/>
    <path d="M 560 260 L 620 210" fill="none" stroke="#ffffff" stroke-width="1" stroke-opacity="0.4" stroke-dasharray="200" stroke-dashoffset="200" filter="url(#lineGlow)">
      <animate attributeName="stroke-dashoffset" from="200" to="0" dur="0.7s" begin="0.5s" fill="freeze"/>
    </path>
    <circle cx="560" cy="260" r="2.5" fill="#ffffff" opacity="0.8"/>
  </g>

  <!-- Core → Consistent Replies -->
  <g opacity="0">
    <animate attributeName="opacity" values="0;1" dur="0.8s" begin="0.6s" fill="freeze"/>
    <path d="M 560 310 L 620 345" fill="none" stroke="#ffffff" stroke-width="1" stroke-opacity="0.4" stroke-dasharray="200" stroke-dashoffset="200" filter="url(#lineGlow)">
      <animate attributeName="stroke-dashoffset" from="200" to="0" dur="0.7s" begin="0.6s" fill="freeze"/>
    </path>
    <circle cx="560" cy="310" r="2.5" fill="#ffffff" opacity="0.8"/>
  </g>

  <!-- Core → Internal Knowledge -->
  <g opacity="0">
    <animate attributeName="opacity" values="0;1" dur="0.8s" begin="0.7s" fill="freeze"/>
    <path d="M 560 360 L 620 475" fill="none" stroke="#ffffff" stroke-width="1" stroke-opacity="0.4" stroke-dasharray="200" stroke-dashoffset="200" filter="url(#lineGlow)">
      <animate attributeName="stroke-dashoffset" from="200" to="0" dur="0.7s" begin="0.7s" fill="freeze"/>
    </path>
    <circle cx="560" cy="360" r="2.5" fill="#ffffff" opacity="0.8"/>
  </g>

  <!-- Core → Postgres Structured (bottom left) -->
  <g opacity="0">
    <animate attributeName="opacity" values="0;1" dur="0.8s" begin="0.9s" fill="freeze"/>
    <path d="M 350 460 L 350 560 L 155 560 L 155 680" fill="none" stroke="#ffffff" stroke-width="1" stroke-opacity="0.45" stroke-dasharray="500" stroke-dashoffset="500" filter="url(#lineGlow)">
      <animate attributeName="stroke-dashoffset" from="500" to="0" dur="1s" begin="0.9s" fill="freeze"/>
    </path>
    <circle cx="350" cy="460" r="2.5" fill="#ffffff" opacity="0.9"/>
  </g>

  <!-- Core → Postgres Chat Memory (bottom center) -->
  <g opacity="0">
    <animate attributeName="opacity" values="0;1" dur="0.8s" begin="1s" fill="freeze"/>
    <path d="M 395 460 L 395 550 L 310 550 L 310 680" fill="none" stroke="#ffffff" stroke-width="1" stroke-opacity="0.45" stroke-dasharray="450" stroke-dashoffset="450" filter="url(#lineGlow)">
      <animate attributeName="stroke-dashoffset" from="450" to="0" dur="1s" begin="1s" fill="freeze"/>
    </path>
    <circle cx="395" cy="460" r="2.5" fill="#ffffff" opacity="0.9"/>
  </g>

  <!-- Core → Pinecone Vector -->
  <g opacity="0">
    <animate attributeName="opacity" values="0;1" dur="0.8s" begin="1.1s" fill="freeze"/>
    <path d="M 445 460 L 445 570 L 490 570 L 490 680" fill="none" stroke="#ffffff" stroke-width="1" stroke-opacity="0.45" stroke-dasharray="450" stroke-dashoffset="450" filter="url(#lineGlow)">
      <animate attributeName="stroke-dashoffset" from="450" to="0" dur="1s" begin="1.1s" fill="freeze"/>
    </path>
    <circle cx="445" cy="460" r="2.5" fill="#ffffff" opacity="0.9"/>
  </g>

  <!-- Pinecone → Notion -->
  <g opacity="0">
    <animate attributeName="opacity" values="0;1" dur="0.8s" begin="1.3s" fill="freeze"/>
    <path d="M 580 740 L 670 740" fill="none" stroke="#ffffff" stroke-width="1" stroke-opacity="0.45" stroke-dasharray="200" stroke-dashoffset="200" filter="url(#lineGlow)">
      <animate attributeName="stroke-dashoffset" from="200" to="0" dur="0.8s" begin="1.3s" fill="freeze"/>
    </path>
    <circle cx="580" cy="740" r="2.5" fill="#ffffff" opacity="0.8"/>
    <circle cx="670" cy="740" r="2.5" fill="#ffffff" opacity="0.8"/>
    <text x="625" y="728" fill="#a8b8d0" font-size="9" text-anchor="middle">Internal Docs</text>
    <text x="625" y="738" fill="#a8b8d0" font-size="9" text-anchor="middle">Access</text>
  </g>

  <!-- Google Gemini Chat → Postgres Chat Memory -->
  <g opacity="0">
    <animate attributeName="opacity" values="0;1" dur="0.8s" begin="1.5s" fill="freeze"/>
    <path d="M 290 870 L 290 790" fill="none" stroke="#ffffff" stroke-width="1" stroke-opacity="0.4" stroke-dasharray="100" stroke-dashoffset="100" filter="url(#lineGlow)">
      <animate attributeName="stroke-dashoffset" from="100" to="0" dur="0.6s" begin="1.5s" fill="freeze"/>
    </path>
  </g>

  <!-- Google Gemini Chat → Embeddings Gemini -->
  <g opacity="0">
    <animate attributeName="opacity" values="0;1" dur="0.8s" begin="1.6s" fill="freeze"/>
    <path d="M 360 900 L 430 900" fill="none" stroke="#ffffff" stroke-width="1" stroke-opacity="0.4" stroke-dasharray="100" stroke-dashoffset="100" filter="url(#lineGlow)">
      <animate attributeName="stroke-dashoffset" from="100" to="0" dur="0.6s" begin="1.6s" fill="freeze"/>
    </path>
  </g>

  <!-- Embeddings Gemini → Pinecone -->
  <g opacity="0">
    <animate attributeName="opacity" values="0;1" dur="0.8s" begin="1.7s" fill="freeze"/>
    <path d="M 490 870 L 490 790" fill="none" stroke="#ffffff" stroke-width="1" stroke-opacity="0.4" stroke-dasharray="100" stroke-dashoffset="100" filter="url(#lineGlow)">
      <animate attributeName="stroke-dashoffset" from="100" to="0" dur="0.6s" begin="1.7s" fill="freeze"/>
    </path>
  </g>

  <!-- ============ CENTRAL ORCHESTRATION LAYER ============ -->
  <g opacity="0">
    <animate attributeName="opacity" values="0;1" dur="0.8s" begin="0.1s" fill="freeze"/>

    <!-- Outer glow -->
    <rect x="260" y="180" width="300" height="280" rx="20" fill="url(#coreGrad)" filter="url(#strongGlow)"/>

    <!-- Main card -->
    <rect x="280" y="200" width="260" height="240" rx="16" fill="url(#glassGrad)" stroke="#5a7fb8" stroke-opacity="0.5" stroke-width="1.5"/>
    <rect x="280" y="200" width="260" height="240" rx="16" fill="url(#circuitPattern)" opacity="0.6"/>

    <!-- Top highlight -->
    <rect x="290" y="205" width="240" height="2" rx="1" fill="#ffffff" opacity="0.3"/>

    <!-- AI chip in center -->
    <g transform="translate(380, 230)">
      <!-- Chip outline -->
      <rect x="0" y="0" width="60" height="60" rx="8" fill="url(#iconBg)" stroke="#7a9fd8" stroke-width="1"/>

      <!-- Chip pins - top -->
      <line x1="10" y1="0" x2="10" y2="-8" stroke="#7a9fd8" stroke-width="1"/>
      <line x1="20" y1="0" x2="20" y2="-8" stroke="#7a9fd8" stroke-width="1"/>
      <line x1="30" y1="0" x2="30" y2="-8" stroke="#7a9fd8" stroke-width="1"/>
      <line x1="40" y1="0" x2="40" y2="-8" stroke="#7a9fd8" stroke-width="1"/>
      <line x1="50" y1="0" x2="50" y2="-8" stroke="#7a9fd8" stroke-width="1"/>

      <!-- Chip pins - bottom -->
      <line x1="10" y1="60" x2="10" y2="68" stroke="#7a9fd8" stroke-width="1"/>
      <line x1="20" y1="60" x2="20" y2="68" stroke="#7a9fd8" stroke-width="1"/>
      <line x1="30" y1="60" x2="30" y2="68" stroke="#7a9fd8" stroke-width="1"/>
      <line x1="40" y1="60" x2="40" y2="68" stroke="#7a9fd8" stroke-width="1"/>
      <line x1="50" y1="60" x2="50" y2="68" stroke="#7a9fd8" stroke-width="1"/>

      <!-- Chip pins - left -->
      <line x1="0" y1="15" x2="-8" y2="15" stroke="#7a9fd8" stroke-width="1"/>
      <line x1="0" y1="30" x2="-8" y2="30" stroke="#7a9fd8" stroke-width="1"/>
      <line x1="0" y1="45" x2="-8" y2="45" stroke="#7a9fd8" stroke-width="1"/>

      <!-- Chip pins - right -->
      <line x1="60" y1="15" x2="68" y2="15" stroke="#7a9fd8" stroke-width="1"/>
      <line x1="60" y1="30" x2="68" y2="30" stroke="#7a9fd8" stroke-width="1"/>
      <line x1="60" y1="45" x2="68" y2="45" stroke="#7a9fd8" stroke-width="1"/>

      <!-- AI text -->
      <text x="30" y="38" fill="#ffffff" font-size="18" font-weight="700" text-anchor="middle" filter="url(#softGlow)">AI</text>

      <!-- Pulsing ring -->
      <rect x="-4" y="-4" width="68" height="68" rx="12" fill="none" stroke="#7a9fd8" stroke-width="1" opacity="0.4">
        <animate attributeName="opacity" values="0.4;0.1;0.4" dur="2.5s" repeatCount="indefinite"/>
      </rect>
    </g>

    <!-- Label -->
    <text x="410" y="370" fill="#ffffff" font-size="18" font-weight="600" text-anchor="middle" letter-spacing="1.5">AI ASSISTANT</text>
    <text x="410" y="395" fill="#a8b8d0" font-size="14" font-weight="400" text-anchor="middle" letter-spacing="1">ORCHESTRATION</text>
    <text x="410" y="413" fill="#a8b8d0" font-size="14" font-weight="400" text-anchor="middle" letter-spacing="1">LAYER</text>
  </g>

  <!-- ============ LEFT: CHAT MEMORY MANAGER ============ -->
  <g opacity="0">
    <animate attributeName="opacity" values="0;1" dur="0.6s" begin="0.2s" fill="freeze"/>
    <animateTransform attributeName="transform" type="translate" values="-30,0;0,0" dur="0.6s" begin="0.2s" fill="freeze"/>

    <rect x="50" y="230" width="125" height="160" rx="12" fill="url(#glassGrad)" stroke="#4a5670" stroke-opacity="0.6" stroke-width="1"/>
    <rect x="55" y="235" width="115" height="2" rx="1" fill="#ffffff" opacity="0.2"/>

    <!-- Icon container -->
    <rect x="87" y="250" width="50" height="50" rx="10" fill="url(#iconBg)" stroke="#5a6780" stroke-width="0.5"/>

    <!-- Database cylinder icon -->
    <g transform="translate(100, 263)" stroke="#b8c8e0" stroke-width="1.5" fill="none">
      <ellipse cx="12" cy="4" rx="10" ry="3"/>
      <path d="M 2 4 L 2 20 Q 2 23 12 23 Q 22 23 22 20 L 22 4"/>
      <ellipse cx="12" cy="10" rx="10" ry="3" opacity="0.6"/>
      <ellipse cx="12" cy="16" rx="10" ry="3" opacity="0.4"/>
    </g>

    <text x="112" y="325" fill="#ffffff" font-size="11" font-weight="600" text-anchor="middle" letter-spacing="0.5">CHAT</text>
    <text x="112" y="340" fill="#ffffff" font-size="11" font-weight="600" text-anchor="middle" letter-spacing="0.5">MEMORY</text>
    <text x="112" y="355" fill="#ffffff" font-size="11" font-weight="600" text-anchor="middle" letter-spacing="0.5">MANAGER</text>
    <text x="112" y="375" fill="#8a9ab0" font-size="9" text-anchor="middle">Contextual History</text>
  </g>

  <!-- ============ RIGHT: FASTER ANSWERS ============ -->
  <g opacity="0">
    <animate attributeName="opacity" values="0;1" dur="0.6s" begin="0.4s" fill="freeze"/>
    <animateTransform attributeName="transform" type="translate" values="30,0;0,0" dur="0.6s" begin="0.4s" fill="freeze"/>

    <rect x="620" y="160" width="170" height="100" rx="12" fill="url(#glassGrad)" stroke="#4a5670" stroke-opacity="0.6" stroke-width="1"/>

    <!-- Icon -->
    <rect x="635" y="175" width="32" height="32" rx="7" fill="url(#iconBg)"/>
    <g transform="translate(643, 183)" stroke="#b8c8e0" stroke-width="1.3" fill="#b8c8e0">
      <path d="M 2 14 L 10 14 M 4 10 L 12 10 M 6 6 L 14 6" fill="none"/>
      <path d="M 14 2 L 16 4 L 14 8 L 12 6 Z"/>
    </g>

    <text x="682" y="190" fill="#ffffff" font-size="13" font-weight="700" letter-spacing="0.8">FASTER</text>
    <text x="682" y="206" fill="#ffffff" font-size="13" font-weight="700" letter-spacing="0.8">ANSWERS</text>
    <text x="682" y="228" fill="#8a9ab0" font-size="9">Instant replies from</text>
    <text x="682" y="240" fill="#8a9ab0" font-size="9">internal knowledge.</text>
  </g>

  <!-- ============ RIGHT: CONSISTENT REPLIES ============ -->
  <g opacity="0">
    <animate attributeName="opacity" values="0;1" dur="0.6s" begin="0.55s" fill="freeze"/>
    <animateTransform attributeName="transform" type="translate" values="30,0;0,0" dur="0.6s" begin="0.55s" fill="freeze"/>

    <rect x="620" y="295" width="170" height="100" rx="12" fill="url(#glassGrad)" stroke="#4a5670" stroke-opacity="0.6" stroke-width="1"/>

    <rect x="635" y="310" width="32" height="32" rx="7" fill="url(#iconBg)"/>
    <g transform="translate(642, 317)" fill="none" stroke="#b8c8e0" stroke-width="1.3">
      <path d="M 2 3 L 16 3 Q 18 3 18 5 L 18 12 Q 18 14 16 14 L 8 14 L 4 18 L 4 14 L 2 14 Q 0 14 0 12 L 0 5 Q 0 3 2 3 Z" fill="#b8c8e0" fill-opacity="0.2"/>
      <circle cx="6" cy="8.5" r="0.8" fill="#b8c8e0"/>
      <circle cx="9" cy="8.5" r="0.8" fill="#b8c8e0"/>
      <circle cx="12" cy="8.5" r="0.8" fill="#b8c8e0"/>
    </g>

    <text x="682" y="325" fill="#ffffff" font-size="13" font-weight="700" letter-spacing="0.8">CONSISTENT</text>
    <text x="682" y="341" fill="#ffffff" font-size="13" font-weight="700" letter-spacing="0.8">REPLIES</text>
    <text x="682" y="363" fill="#8a9ab0" font-size="9">Unified voice across</text>
    <text x="682" y="375" fill="#8a9ab0" font-size="9">the sales team.</text>
  </g>

  <!-- ============ RIGHT: INTERNAL KNOWLEDGE ============ -->
  <g opacity="0">
    <animate attributeName="opacity" values="0;1" dur="0.6s" begin="0.7s" fill="freeze"/>
    <animateTransform attributeName="transform" type="translate" values="30,0;0,0" dur="0.6s" begin="0.7s" fill="freeze"/>

    <rect x="620" y="430" width="170" height="115" rx="12" fill="url(#glassGrad)" stroke="#4a5670" stroke-opacity="0.6" stroke-width="1"/>

    <rect x="635" y="445" width="32" height="32" rx="7" fill="url(#iconBg)"/>
    <g transform="translate(643, 453)" fill="none" stroke="#b8c8e0" stroke-width="1.3">
      <circle cx="7" cy="7" r="6"/>
      <line x1="11.5" y1="11.5" x2="16" y2="16"/>
    </g>

    <text x="682" y="460" fill="#ffffff" font-size="13" font-weight="700" letter-spacing="0.8">INTERNAL</text>
    <text x="682" y="476" fill="#ffffff" font-size="13" font-weight="700" letter-spacing="0.8">KNOWLEDGE</text>
    <text x="682" y="492" fill="#ffffff" font-size="13" font-weight="700" letter-spacing="0.8">RETRIEVAL</text>
    <text x="682" y="514" fill="#8a9ab0" font-size="9">Context-aware search</text>
    <text x="682" y="526" fill="#8a9ab0" font-size="9">across sales docs.</text>
  </g>

  <!-- ============ BOTTOM: POSTGRES STRUCTURED KNOWLEDGE ============ -->
  <g opacity="0">
    <animate attributeName="opacity" values="0;1" dur="0.6s" begin="0.95s" fill="freeze"/>
    <animateTransform attributeName="transform" type="translate" values="0,30;0,0" dur="0.6s" begin="0.95s" fill="freeze"/>

    <rect x="90" y="680" width="130" height="170" rx="12" fill="url(#glassGrad)" stroke="#4a5670" stroke-opacity="0.6" stroke-width="1"/>

    <rect x="130" y="700" width="50" height="50" rx="10" fill="url(#iconBg)" stroke="#5a6780" stroke-width="0.5"/>

    <!-- Postgres elephant icon (simplified) -->
    <g transform="translate(140, 710)">
      <!-- Blue elephant body -->
      <ellipse cx="15" cy="18" rx="13" ry="10" fill="#336791"/>
      <ellipse cx="15" cy="15" rx="11" ry="9" fill="#336791"/>
      <!-- Highlight -->
      <ellipse cx="12" cy="12" rx="5" ry="3" fill="#5a8bb8" opacity="0.7"/>
      <!-- Trunk -->
      <path d="M 20 22 Q 25 25 22 28" fill="none" stroke="#336791" stroke-width="2.5" stroke-linecap="round"/>
      <!-- Eye -->
      <circle cx="18" cy="13" r="1" fill="#ffffff"/>
      <circle cx="18" cy="13" r="0.5" fill="#000000"/>
    </g>

    <text x="155" y="775" fill="#ffffff" font-size="11" font-weight="600" text-anchor="middle" letter-spacing="0.5">POSTGRES</text>
    <text x="155" y="790" fill="#ffffff" font-size="11" font-weight="600" text-anchor="middle" letter-spacing="0.5">STRUCTURED</text>
    <text x="155" y="805" fill="#ffffff" font-size="11" font-weight="600" text-anchor="middle" letter-spacing="0.5">KNOWLEDGE</text>
    <text x="155" y="820" fill="#ffffff" font-size="11" font-weight="600" text-anchor="middle" letter-spacing="0.5">MEMORY</text>
  </g>

  <!-- ============ BOTTOM: POSTGRES CHAT MEMORY ============ -->
  <g opacity="0">
    <animate attributeName="opacity" values="0;1" dur="0.6s" begin="1.05s" fill="freeze"/>
    <animateTransform attributeName="transform" type="translate" values="0,30;0,0" dur="0.6s" begin="1.05s" fill="freeze"/>

    <rect x="250" y="680" width="125" height="150" rx="12" fill="url(#glassGrad)" stroke="#4a5670" stroke-opacity="0.6" stroke-width="1"/>

    <rect x="287" y="700" width="50" height="50" rx="10" fill="url(#iconBg)" stroke="#5a6780" stroke-width="0.5"/>

    <!-- Postgres elephant -->
    <g transform="translate(297, 710)">
      <ellipse cx="15" cy="18" rx="13" ry="10" fill="#336791"/>
      <ellipse cx="15" cy="15" rx="11" ry="9" fill="#336791"/>
      <ellipse cx="12" cy="12" rx="5" ry="3" fill="#5a8bb8" opacity="0.7"/>
      <path d="M 20 22 Q 25 25 22 28" fill="none" stroke="#336791" stroke-width="2.5" stroke-linecap="round"/>
      <circle cx="18" cy="13" r="1" fill="#ffffff"/>
      <circle cx="18" cy="13" r="0.5" fill="#000000"/>
    </g>

    <text x="312" y="775" fill="#ffffff" font-size="11" font-weight="600" text-anchor="middle" letter-spacing="0.5">POSTGRES</text>
    <text x="312" y="790" fill="#ffffff" font-size="11" font-weight="600" text-anchor="middle" letter-spacing="0.5">CHAT</text>
    <text x="312" y="805" fill="#ffffff" font-size="11" font-weight="600" text-anchor="middle" letter-spacing="0.5">MEMORY</text>
  </g>

  <!-- ============ BOTTOM: PINECONE VECTOR STORE ============ -->
  <g opacity="0">
    <animate attributeName="opacity" values="0;1" dur="0.6s" begin="1.15s" fill="freeze"/>
    <animateTransform attributeName="transform" type="translate" values="0,30;0,0" dur="0.6s" begin="1.15s" fill="freeze"/>

    <rect x="420" y="680" width="160" height="150" rx="12" fill="url(#glassGrad)" stroke="#4a5670" stroke-opacity="0.6" stroke-width="1"/>

    <rect x="475" y="700" width="50" height="50" rx="10" fill="url(#iconBg)" stroke="#5a6780" stroke-width="0.5"/>

    <!-- Pinecone vector network icon -->
    <g transform="translate(487, 712)" stroke="#b8c8e0" stroke-width="1" fill="#b8c8e0">
      <!-- Central node -->
      <circle cx="13" cy="13" r="2" fill="#b8c8e0"/>
      <!-- Outer nodes -->
      <circle cx="3" cy="5" r="1.5"/>
      <circle cx="23" cy="5" r="1.5"/>
      <circle cx="3" cy="21" r="1.5"/>
      <circle cx="23" cy="21" r="1.5"/>
      <circle cx="13" cy="2" r="1.5"/>
      <circle cx="13" cy="24" r="1.5"/>
      <!-- Lines -->
      <line x1="13" y1="13" x2="3" y2="5" stroke-width="0.8" opacity="0.7"/>
      <line x1="13" y1="13" x2="23" y2="5" stroke-width="0.8" opacity="0.7"/>
      <line x1="13" y1="13" x2="3" y2="21" stroke-width="0.8" opacity="0.7"/>
      <line x1="13" y1="13" x2="23" y2="21" stroke-width="0.8" opacity="0.7"/>
      <line x1="13" y1="13" x2="13" y2="2" stroke-width="0.8" opacity="0.7"/>
      <line x1="13" y1="13" x2="13" y2="24" stroke-width="0.8" opacity="0.7"/>
    </g>

    <text x="500" y="775" fill="#ffffff" font-size="11" font-weight="600" text-anchor="middle" letter-spacing="0.5">PINECONE</text>
    <text x="500" y="790" fill="#ffffff" font-size="11" font-weight="600" text-anchor="middle" letter-spacing="0.5">VECTOR</text>
    <text x="500" y="805" fill="#ffffff" font-size="11" font-weight="600" text-anchor="middle" letter-spacing="0.5">STORE</text>
    <text x="500" y="820" fill="#8a9ab0" font-size="10" text-anchor="middle">(RETRIEVAL)</text>
  </g>

  <!-- ============ BOTTOM RIGHT: NOTION ============ -->
  <g opacity="0">
    <animate attributeName="opacity" values="0;1" dur="0.6s" begin="1.4s" fill="freeze"/>
    <animateTransform attributeName="transform" type="translate" values="30,0;0,0" dur="0.6s" begin="1.4s" fill="freeze"/>

    <rect x="670" y="680" width="125" height="150" rx="12" fill="url(#glassGrad)" stroke="#4a5670" stroke-opacity="0.6" stroke-width="1"/>

    <rect x="707" y="700" width="50" height="50" rx="10" fill="url(#iconBg)" stroke="#5a6780" stroke-width="0.5"/>

    <!-- Notion N icon -->
    <g transform="translate(716, 710)" fill="#ffffff">
      <rect x="0" y="0" width="30" height="30" rx="4" fill="#ffffff"/>
      <path d="M 7 6 L 7 24 L 10 24 L 10 12 L 20 24 L 23 24 L 23 6 L 20 6 L 20 18 L 10 6 Z" fill="#000000"/>
    </g>

    <text x="732" y="775" fill="#ffffff" font-size="11" font-weight="600" text-anchor="middle" letter-spacing="0.5">NOTION</text>
    <text x="732" y="790" fill="#ffffff" font-size="11" font-weight="600" text-anchor="middle" letter-spacing="0.5">KNOWLEDGE</text>
    <text x="732" y="805" fill="#ffffff" font-size="11" font-weight="600" text-anchor="middle" letter-spacing="0.5">BASE</text>
  </g>

  <!-- ============ VERY BOTTOM: GOOGLE GEMINI CHAT MODEL ============ -->
  <g opacity="0">
    <animate attributeName="opacity" values="0;1" dur="0.6s" begin="1.5s" fill="freeze"/>
    <animateTransform attributeName="transform" type="translate" values="0,30;0,0" dur="0.6s" begin="1.5s" fill="freeze"/>

    <rect x="230" y="870" width="130" height="110" rx="12" fill="url(#glassGrad)" stroke="#4a5670" stroke-opacity="0.6" stroke-width="1"/>

    <rect x="272" y="885" width="45" height="45" rx="10" fill="url(#iconBg)" stroke="#5a6780" stroke-width="0.5"/>

    <!-- Google G logo -->
    <g transform="translate(281, 894)">
      <path d="M 13.5 11 L 13.5 16 L 20 16 Q 19 20 13.5 20 Q 7 20 7 13.5 Q 7 7 13.5 7 Q 16.5 7 18.5 9 L 22 5.5 Q 19 3 13.5 3 Q 4 3 4 13.5 Q 4 24 13.5 24 Q 23 24 23 14 L 23 11 Z" fill="#4285F4"/>
      <path d="M 13.5 11 L 13.5 16 L 20 16 Q 19 19 17 20.5 L 21 23 Q 23 20 23 14 L 23 11 Z" fill="#34A853" opacity="0.9"/>
      <path d="M 7 13.5 Q 7 11 8 9.5 L 4.5 7 Q 3 10 3 13.5 Q 3 17 4.5 20 L 8 17.5 Q 7 16 7 13.5 Z" fill="#FBBC05"/>
      <path d="M 13.5 7 Q 16.5 7 18.5 9 L 22 5.5 Q 19 3 13.5 3 Q 8.5 3 5 6.5 L 8 9.5 Q 10 7 13.5 7 Z" fill="#EA4335"/>
    </g>

    <text x="295" y="950" fill="#ffffff" font-size="10" font-weight="600" text-anchor="middle" letter-spacing="0.5">GOOGLE</text>
    <text x="295" y="963" fill="#ffffff" font-size="10" font-weight="600" text-anchor="middle" letter-spacing="0.5">GEMINI CHAT</text>
    <text x="295" y="976" fill="#ffffff" font-size="10" font-weight="600" text-anchor="middle" letter-spacing="0.5">MODEL</text>
  </g>

  <!-- ============ VERY BOTTOM: EMBEDDINGS GOOGLE GEMINI ============ -->
  <g opacity="0">
    <animate attributeName="opacity" values="0;1" dur="0.6s" begin="1.6s" fill="freeze"/>
    <animateTransform attributeName="transform" type="translate" values="0,30;0,0" dur="0.6s" begin="1.6s" fill="freeze"/>

    <rect x="430" y="870" width="130" height="110" rx="12" fill="url(#glassGrad)" stroke="#4a5670" stroke-opacity="0.6" stroke-width="1"/>

    <rect x="472" y="885" width="45" height="45" rx="10" fill="url(#iconBg)" stroke="#5a6780" stroke-width="0.5"/>

    <!-- Google G logo -->
    <g transform="translate(481, 894)">
      <path d="M 13.5 11 L 13.5 16 L 20 16 Q 19 20 13.5 20 Q 7 20 7 13.5 Q 7 7 13.5 7 Q 16.5 7 18.5 9 L 22 5.5 Q 19 3 13.5 3 Q 4 3 4 13.5 Q 4 24 13.5 24 Q 23 24 23 14 L 23 11 Z" fill="#4285F4"/>
      <path d="M 13.5 11 L 13.5 16 L 20 16 Q 19 19 17 20.5 L 21 23 Q 23 20 23 14 L 23 11 Z" fill="#34A853" opacity="0.9"/>
      <path d="M 7 13.5 Q 7 11 8 9.5 L 4.5 7 Q 3 10 3 13.5 Q 3 17 4.5 20 L 8 17.5 Q 7 16 7 13.5 Z" fill="#FBBC05"/>
      <path d="M 13.5 7 Q 16.5 7 18.5 9 L 22 5.5 Q 19 3 13.5 3 Q 8.5 3 5 6.5 L 8 9.5 Q 10 7 13.5 7 Z" fill="#EA4335"/>
    </g>

    <text x="495" y="950" fill="#ffffff" font-size="10" font-weight="600" text-anchor="middle" letter-spacing="0.5">EMBEDDINGS</text>
    <text x="495" y="963" fill="#ffffff" font-size="10" font-weight="600" text-anchor="middle" letter-spacing="0.5">GOOGLE</text>
    <text x="495" y="976" fill="#ffffff" font-size="10" font-weight="600" text-anchor="middle" letter-spacing="0.5">GEMINI</text>
  </g>

  <!-- ============ DATA FLOW PULSES (ongoing) ============ -->
  <!-- Pulse from Chat Memory Manager to Core -->
  <g opacity="0">
    <animate attributeName="opacity" values="0;1" dur="0.5s" begin="2s" fill="freeze"/>
    <circle r="3" fill="#ffffff" filter="url(#softGlow)">
      <animateMotion dur="2.5s" begin="2s" repeatCount="indefinite" path="M 175 310 L 280 310"/>
      <animate attributeName="opacity" values="0;1;1;0" dur="2.5s" begin="2s" repeatCount="indefinite"/>
    </circle>
  </g>

  <!-- Pulse from bottom nodes to core -->
  <g opacity="0">
    <animate attributeName="opacity" values="0;1" dur="0.5s" begin="2.2s" fill="freeze"/>
    <circle r="3" fill="#ffffff" filter="url(#softGlow)">
      <animateMotion dur="3s" begin="2.2s" repeatCount="indefinite" path="M 155 680 L 155 560 L 350 560 L 350 460"/>
      <animate attributeName="opacity" values="0;1;1;0" dur="3s" begin="2.2s" repeatCount="indefinite"/>
    </circle>
  </g>

  <g opacity="0">
    <animate attributeName="opacity" values="0;1" dur="0.5s" begin="2.6s" fill="freeze"/>
    <circle r="3" fill="#ffffff" filter="url(#softGlow)">
      <animateMotion dur="3s" begin="2.6s" repeatCount="indefinite" path="M 490 680 L 490 570 L 445 570 L 445 460"/>
      <animate attributeName="opacity" values="0;1;1;0" dur="3s" begin="2.6s" repeatCount="indefinite"/>
    </circle>
  </g>

  <!-- Pulse from core to Notion -->
  <g opacity="0">
    <animate attributeName="opacity" values="0;1" dur="0.5s" begin="3s" fill="freeze"/>
    <circle r="3" fill="#ffffff" filter="url(#softGlow)">
      <animateMotion dur="2.5s" begin="3s" repeatCount="indefinite" path="M 580 740 L 670 740"/>
      <animate attributeName="opacity" values="0;1;1;0" dur="2.5s" begin="3s" repeatCount="indefinite"/>
    </circle>
  </g>

  <!-- Subtle core pulse -->
  <g>
    <circle cx="410" cy="320" r="140" fill="none" stroke="#5a7fb8" stroke-width="1" opacity="0">
      <animate attributeName="r" values="100;160;100" dur="4s" begin="2s" repeatCount="indefinite"/>
      <animate attributeName="opacity" values="0;0.15;0" dur="4s" begin="2s" repeatCount="indefinite"/>
    </circle>
  </g>
</svg>
