<svg xmlns="http://www.w3.org/2000/svg" viewBox="0 0 800 1000" width="100%" height="100%" preserveAspectRatio="xMidYMid meet" font-family="system-ui, -apple-system, 'Segoe UI', Roboto, sans-serif">
  <defs>
    <radialGradient id="bgGrad" cx="50%" cy="40%" r="80%">
      <stop offset="0%" stop-color="#1a1f2e"/>
      <stop offset="60%" stop-color="#0c1018"/>
      <stop offset="100%" stop-color="#05080d"/>
    </radialGradient>

    <linearGradient id="glassGrad" x1="0%" y1="0%" x2="0%" y2="100%">
      <stop offset="0%" stop-color="#ffffff" stop-opacity="0.1"/>
      <stop offset="50%" stop-color="#ffffff" stop-opacity="0.04"/>
      <stop offset="100%" stop-color="#ffffff" stop-opacity="0.02"/>
    </linearGradient>

    <linearGradient id="chartAreaGrad" x1="0%" y1="0%" x2="0%" y2="100%">
      <stop offset="0%" stop-color="#4a9eff" stop-opacity="0.5"/>
      <stop offset="50%" stop-color="#4a9eff" stop-opacity="0.15"/>
      <stop offset="100%" stop-color="#4a9eff" stop-opacity="0"/>
    </linearGradient>

    <filter id="softGlow" x="-50%" y="-50%" width="200%" height="200%">
      <feGaussianBlur stdDeviation="2" result="blur"/>
      <feMerge>
        <feMergeNode in="blur"/>
        <feMergeNode in="SourceGraphic"/>
      </feMerge>
    </filter>

    <filter id="strongGlow" x="-50%" y="-50%" width="200%" height="200%">
      <feGaussianBlur stdDeviation="5" result="blur"/>
      <feMerge>
        <feMergeNode in="blur"/>
        <feMergeNode in="SourceGraphic"/>
      </feMerge>
    </filter>

    <filter id="lineGlow" x="-50%" y="-50%" width="200%" height="200%">
      <feGaussianBlur stdDeviation="2.5" result="blur"/>
      <feMerge>
        <feMergeNode in="blur"/>
        <feMergeNode in="SourceGraphic"/>
      </feMerge>
    </filter>

    <pattern id="grid" width="55" height="37" patternUnits="userSpaceOnUse">
      <path d="M 55 0 L 0 0 0 37" fill="none" stroke="#2a3a5f" stroke-width="0.5" stroke-opacity="0.35"/>
    </pattern>

    <pattern id="stars" width="200" height="200" patternUnits="userSpaceOnUse">
      <circle cx="30" cy="50" r="0.6" fill="#ffffff" opacity="0.4"/>
      <circle cx="130" cy="30" r="0.4" fill="#ffffff" opacity="0.3"/>
      <circle cx="170" cy="140" r="0.5" fill="#ffffff" opacity="0.35"/>
      <circle cx="80" cy="170" r="0.3" fill="#ffffff" opacity="0.3"/>
      <circle cx="50" cy="120" r="0.5" fill="#ffffff" opacity="0.3"/>
    </pattern>
  </defs>

  <rect width="800" height="1000" fill="url(#bgGrad)"/>
  <rect width="800" height="1000" fill="url(#stars)" opacity="0.5"/>

  <!-- ============ ANIMATED PLEXUS BACKGROUND ============ -->
  <g opacity="0.4">
    <g stroke="#4a7abd" stroke-width="0.5" fill="#8fa8c8">
      <circle r="1.5" cx="0" cy="0" opacity="0.6">
        <animateMotion dur="20s" repeatCount="indefinite" path="M 60,150 Q 110,120 130,170 T 80,210 Q 30,190 60,150"/>
        <animate attributeName="opacity" values="0.3;0.7;0.3" dur="5s" repeatCount="indefinite"/>
      </circle>
      <circle r="1.3" cx="0" cy="0" opacity="0.5">
        <animateMotion dur="24s" repeatCount="indefinite" path="M 720,900 Q 770,870 790,920 T 740,960 Q 690,940 720,900"/>
        <animate attributeName="opacity" values="0.3;0.6;0.3" dur="6s" repeatCount="indefinite"/>
      </circle>
      <circle r="1.4" cx="0" cy="0" opacity="0.6">
        <animateMotion dur="22s" repeatCount="indefinite" path="M 50,850 Q 100,820 120,870 T 70,910 Q 20,890 50,850"/>
        <animate attributeName="opacity" values="0.3;0.7;0.3" dur="5.5s" repeatCount="indefinite"/>
      </circle>
      <circle r="1.5" cx="0" cy="0" opacity="0.5">
        <animateMotion dur="26s" repeatCount="indefinite" path="M 700,100 Q 750,70 770,120 T 720,160 Q 670,140 700,100"/>
        <animate attributeName="opacity" values="0.3;0.6;0.3" dur="5.8s" repeatCount="indefinite"/>
      </circle>
    </g>
  </g>

  <!-- ============ HEADER BAR ============ -->
  <g opacity="0">
    <animate attributeName="opacity" values="0;1" dur="0.6s" begin="0.1s" fill="freeze"/>

    <rect x="40" y="50" width="720" height="70" rx="12" fill="url(#glassGrad)" stroke="#5a7fb8" stroke-opacity="0.4" stroke-width="1"/>

    <g transform="translate(70, 85)">
      <circle cx="0" cy="0" r="18" fill="#ffffff" opacity="0.05"/>
      <g transform="scale(0.75) translate(-13, -13)">
        <path d="M 13.5 11 L 13.5 16 L 20 16 Q 19 20 13.5 20 Q 7 20 7 13.5 Q 7 7 13.5 7 Q 16.5 7 18.5 9 L 22 5.5 Q 19 3 13.5 3 Q 4 3 4 13.5 Q 4 24 13.5 24 Q 23 24 23 14 L 23 11 Z" fill="#4285F4"/>
        <path d="M 13.5 11 L 13.5 16 L 20 16 Q 19 19 17 20.5 L 21 23 Q 23 20 23 14 L 23 11 Z" fill="#34A853" opacity="0.9"/>
        <path d="M 7 13.5 Q 7 11 8 9.5 L 4.5 7 Q 3 10 3 13.5 Q 3 17 4.5 20 L 8 17.5 Q 7 16 7 13.5 Z" fill="#FBBC05"/>
        <path d="M 13.5 7 Q 16.5 7 18.5 9 L 22 5.5 Q 19 3 13.5 3 Q 8.5 3 5 6.5 L 8 9.5 Q 10 7 13.5 7 Z" fill="#EA4335"/>
      </g>
    </g>

    <text x="100" y="80" fill="#ffffff" font-size="15" font-weight="600">Search Console</text>
    <text x="100" y="98" fill="#8fa8c8" font-size="11">Performance Overview</text>

    <rect x="560" y="72" width="180" height="26" rx="13" fill="#ffffff" fill-opacity="0.06" stroke="#5a7fb8" stroke-opacity="0.3" stroke-width="0.8"/>
    <text x="575" y="89" fill="#a8b8d0" font-size="11">📅 Last 16 months</text>
    <text x="720" y="89" fill="#8fa8c8" font-size="11">▾</text>
  </g>

  <!-- ============ PROJECT TITLE ============ -->
  <g opacity="0">
    <animate attributeName="opacity" values="0;1" dur="0.6s" begin="0.3s" fill="freeze"/>
    <text x="400" y="160" fill="#ffffff" font-size="22" font-weight="700" text-anchor="middle" letter-spacing="1" filter="url(#softGlow)">Organic Growth System</text>
    <text x="400" y="185" fill="#8fa8c8" font-size="13" text-anchor="middle" letter-spacing="0.5">E-commerce Search Visibility · SEO &amp; Growth</text>
  </g>

  <!-- ============ KPI CARDS ============ -->
  <g opacity="0" transform="translate(40, 215)">
    <animate attributeName="opacity" values="0;1" dur="0.5s" begin="0.5s" fill="freeze"/>
    <animateTransform attributeName="transform" type="translate" values="40,235;40,215" dur="0.5s" begin="0.5s" fill="freeze"/>

    <rect x="0" y="0" width="175" height="110" rx="12" fill="url(#glassGrad)" stroke="#4a9eff" stroke-width="1.3" filter="url(#softGlow)"/>
    <rect x="0" y="0" width="175" height="110" rx="12" fill="#4a9eff" opacity="0.05"/>

    <g transform="translate(18, 18)" stroke="#4a9eff" stroke-width="1.8" fill="none">
      <path d="M 2 2 L 2 13 L 5 10 L 8 15 L 10 14 L 7 9 L 12 9 Z" fill="#4a9eff"/>
    </g>
    <text x="42" y="28" fill="#7dbaff" font-size="10" font-weight="500" letter-spacing="1">TOTAL CLICKS</text>

    <text x="18" y="72" fill="#4a9eff" font-size="32" font-weight="300" filter="url(#softGlow)">
      <tspan opacity="0"><animate attributeName="opacity" values="0;1" dur="0.3s" begin="0.8s" fill="freeze"/></tspan>
      <tspan>1.2M+</tspan>
    </text>

    <g transform="translate(18, 85)" opacity="0">
      <animate attributeName="opacity" values="0;1" dur="0.4s" begin="1s" fill="freeze"/>
      <path d="M 0 6 L 4 2 L 8 6 M 4 2 L 4 12" stroke="#3de688" stroke-width="1.5" fill="none" stroke-linecap="round"/>
      <text x="14" y="12" fill="#3de688" font-size="11" font-weight="600">+23,900%</text>
    </g>
  </g>

  <g opacity="0" transform="translate(233, 215)">
    <animate attributeName="opacity" values="0;1" dur="0.5s" begin="0.65s" fill="freeze"/>
    <animateTransform attributeName="transform" type="translate" values="233,235;233,215" dur="0.5s" begin="0.65s" fill="freeze"/>

    <rect x="0" y="0" width="175" height="110" rx="12" fill="url(#glassGrad)" stroke="#ff5a6e" stroke-width="1.3" filter="url(#softGlow)"/>
    <rect x="0" y="0" width="175" height="110" rx="12" fill="#ff5a6e" opacity="0.05"/>

    <g transform="translate(18, 15)" fill="#ff5a6e">
      <rect x="0" y="8" width="3" height="7"/>
      <rect x="5" y="4" width="3" height="11"/>
      <rect x="10" y="0" width="3" height="15"/>
    </g>
    <text x="42" y="28" fill="#ff8a9a" font-size="10" font-weight="500" letter-spacing="1">IMPRESSIONS</text>

    <text x="18" y="72" fill="#ff5a6e" font-size="32" font-weight="300" filter="url(#softGlow)">
      <tspan opacity="0"><animate attributeName="opacity" values="0;1" dur="0.3s" begin="0.95s" fill="freeze"/></tspan>
      <tspan>18.4M</tspan>
    </text>

    <g transform="translate(18, 85)" opacity="0">
      <animate attributeName="opacity" values="0;1" dur="0.4s" begin="1.15s" fill="freeze"/>
      <path d="M 0 6 L 4 2 L 8 6 M 4 2 L 4 12" stroke="#3de688" stroke-width="1.5" fill="none" stroke-linecap="round"/>
      <text x="14" y="12" fill="#3de688" font-size="11" font-weight="600">+47,000%</text>
    </g>
  </g>

  <g opacity="0" transform="translate(426, 215)">
    <animate attributeName="opacity" values="0;1" dur="0.5s" begin="0.8s" fill="freeze"/>
    <animateTransform attributeName="transform" type="translate" values="426,235;426,215" dur="0.5s" begin="0.8s" fill="freeze"/>

    <rect x="0" y="0" width="175" height="110" rx="12" fill="url(#glassGrad)" stroke="#f5c431" stroke-width="1.3" filter="url(#softGlow)"/>
    <rect x="0" y="0" width="175" height="110" rx="12" fill="#f5c431" opacity="0.05"/>

    <g transform="translate(18, 15)" fill="none" stroke="#f5c431" stroke-width="1.8">
      <path d="M 0 14 L 5 9 L 8 12 L 14 4 L 14 8 M 14 4 L 10 4" stroke-linecap="round" stroke-linejoin="round"/>
    </g>
    <text x="42" y="28" fill="#f9d766" font-size="10" font-weight="500" letter-spacing="1">AVG POSITION</text>

    <text x="18" y="72" fill="#f5c431" font-size="32" font-weight="300" filter="url(#softGlow)">
      <tspan opacity="0"><animate attributeName="opacity" values="0;1" dur="0.3s" begin="1.1s" fill="freeze"/></tspan>
      <tspan>8.3</tspan>
    </text>

    <g transform="translate(18, 85)" opacity="0">
      <animate attributeName="opacity" values="0;1" dur="0.4s" begin="1.3s" fill="freeze"/>
      <path d="M 0 2 L 4 6 L 8 2 M 4 6 L 4 -4" stroke="#3de688" stroke-width="1.5" fill="none" stroke-linecap="round" transform="translate(0, 4)"/>
      <text x="14" y="12" fill="#3de688" font-size="11" font-weight="600">from 67.2</text>
    </g>
  </g>

  <g opacity="0" transform="translate(619, 215)">
    <animate attributeName="opacity" values="0;1" dur="0.5s" begin="0.95s" fill="freeze"/>
    <animateTransform attributeName="transform" type="translate" values="619,235;619,215" dur="0.5s" begin="0.95s" fill="freeze"/>

    <rect x="0" y="0" width="141" height="110" rx="12" fill="url(#glassGrad)" stroke="#3de688" stroke-width="1.3" filter="url(#softGlow)"/>
    <rect x="0" y="0" width="141" height="110" rx="12" fill="#3de688" opacity="0.05"/>

    <g transform="translate(18, 15)" fill="none" stroke="#3de688" stroke-width="1.8">
      <circle cx="7" cy="7" r="7"/>
      <path d="M 4 7 L 6 9 L 10 5"/>
    </g>
    <text x="42" y="28" fill="#76ecaa" font-size="10" font-weight="500" letter-spacing="1">TOP 10</text>

    <text x="18" y="72" fill="#3de688" font-size="32" font-weight="300" filter="url(#softGlow)">
      <tspan opacity="0"><animate attributeName="opacity" values="0;1" dur="0.3s" begin="1.25s" fill="freeze"/></tspan>
      <tspan>1,400+</tspan>
    </text>

    <g transform="translate(18, 85)" opacity="0">
      <animate attributeName="opacity" values="0;1" dur="0.4s" begin="1.45s" fill="freeze"/>
      <text x="0" y="12" fill="#76ecaa" font-size="11" font-weight="500">keywords</text>
    </g>
  </g>

  <!-- ============ MAIN CHART ============ -->
  <!-- Chart card: x=40-760 width=720. Inner chart area: x=75-735, y=435-665 -->
  <g opacity="0">
    <animate attributeName="opacity" values="0;1" dur="0.6s" begin="1.5s" fill="freeze"/>

    <rect x="40" y="350" width="720" height="370" rx="14" fill="url(#glassGrad)" stroke="#2a4a6f" stroke-width="1"/>

    <text x="60" y="380" fill="#ffffff" font-size="14" font-weight="600">Daily Organic Traffic Growth</text>
    <text x="60" y="397" fill="#8fa8c8" font-size="11">From 50 to 12,000+ daily visits</text>

    <g transform="translate(620, 373)">
      <circle cx="0" cy="0" r="4" fill="#4a9eff" filter="url(#softGlow)"/>
      <text x="10" y="4" fill="#a8b8d0" font-size="11">Daily Visits</text>
    </g>

    <!-- Grid -->
    <rect x="75" y="435" width="660" height="230" fill="url(#grid)" opacity="0.8"/>

    <!-- Y-axis labels -->
    <text x="68" y="440" fill="#6a7890" font-size="9" text-anchor="end">12K</text>
    <text x="68" y="498" fill="#6a7890" font-size="9" text-anchor="end">9K</text>
    <text x="68" y="555" fill="#6a7890" font-size="9" text-anchor="end">6K</text>
    <text x="68" y="612" fill="#6a7890" font-size="9" text-anchor="end">3K</text>
    <text x="68" y="668" fill="#6a7890" font-size="9" text-anchor="end">0</text>

    <line x1="75" y1="665" x2="735" y2="665" stroke="#3a5a7f" stroke-width="1" stroke-opacity="0.5"/>

    <!-- X-axis labels -->
    <text x="95" y="688" fill="#6a7890" font-size="10" text-anchor="middle">Month 1</text>
    <text x="240" y="688" fill="#6a7890" font-size="10" text-anchor="middle">Month 4</text>
    <text x="405" y="688" fill="#6a7890" font-size="10" text-anchor="middle">Month 8</text>
    <text x="570" y="688" fill="#6a7890" font-size="10" text-anchor="middle">Month 12</text>
    <text x="720" y="688" fill="#6a7890" font-size="10" text-anchor="middle">Month 16</text>
  </g>

  <!-- Filled area under curve -->
  <g opacity="0">
    <animate attributeName="opacity" values="0;1" dur="1.5s" begin="1.8s" fill="freeze"/>
    <clipPath id="growthClip">
      <rect x="75" y="435" width="0" height="230">
        <animate attributeName="width" from="0" to="660" dur="3s" begin="1.8s" fill="freeze"/>
      </rect>
    </clipPath>
    <path d="M 75.0,665 L 83.4,665 L 91.7,664.7 L 100.1,665 L 108.4,661.8 L 116.8,665 L 125.1,665 L 133.5,665 L 141.8,662.2 L 150.2,662.3 L 158.5,662.6 L 166.9,659.9 L 175.3,659.9 L 183.6,659.9 L 192.0,658.6 L 200.3,664.7 L 208.7,662.5 L 217.0,656.6 L 225.4,656.3 L 233.7,664.7 L 242.1,658.3 L 250.4,657.3 L 258.8,656.9 L 267.2,655.6 L 275.5,652.3 L 283.9,640.2 L 292.2,644.7 L 300.6,640.1 L 308.9,638.2 L 317.3,643.4 L 325.6,636.7 L 334.0,648.9 L 342.3,638.3 L 350.7,632.7 L 359.1,637.7 L 367.4,625.5 L 375.8,635.6 L 384.1,628.4 L 392.5,628.5 L 400.8,618.1 L 409.2,619.2 L 417.5,603.8 L 425.9,608.0 L 434.2,605.1 L 442.6,600.8 L 450.9,600.9 L 459.3,578.3 L 467.7,599.3 L 476.0,599.3 L 484.4,590.7 L 492.7,608.0 L 501.1,573.3 L 509.4,583.3 L 517.8,572.8 L 526.1,573.7 L 534.5,549.1 L 542.8,559.9 L 551.2,572.5 L 559.6,529.9 L 567.9,549.3 L 576.3,526.8 L 584.6,548.2 L 593.0,508.4 L 601.3,516.4 L 609.7,506.9 L 618.0,499.8 L 626.4,494.7 L 634.7,514.0 L 643.1,496.3 L 651.5,501.0 L 659.8,494.6 L 668.2,493.4 L 676.5,467.4 L 684.9,446.5 L 693.2,460.2 L 701.6,450.4 L 709.9,445 L 718.3,475.9 L 726.6,445.7 L 735.0,445 L 735,665 L 75,665 Z"
          fill="url(#chartAreaGrad)" clip-path="url(#growthClip)"/>
  </g>

  <!-- Main curve with natural GSC-style fluctuations -->
  <g opacity="0">
    <animate attributeName="opacity" values="0;1" dur="0.6s" begin="1.8s" fill="freeze"/>
    <path d="M 75.0,665 L 83.4,665 L 91.7,664.7 L 100.1,665 L 108.4,661.8 L 116.8,665 L 125.1,665 L 133.5,665 L 141.8,662.2 L 150.2,662.3 L 158.5,662.6 L 166.9,659.9 L 175.3,659.9 L 183.6,659.9 L 192.0,658.6 L 200.3,664.7 L 208.7,662.5 L 217.0,656.6 L 225.4,656.3 L 233.7,664.7 L 242.1,658.3 L 250.4,657.3 L 258.8,656.9 L 267.2,655.6 L 275.5,652.3 L 283.9,640.2 L 292.2,644.7 L 300.6,640.1 L 308.9,638.2 L 317.3,643.4 L 325.6,636.7 L 334.0,648.9 L 342.3,638.3 L 350.7,632.7 L 359.1,637.7 L 367.4,625.5 L 375.8,635.6 L 384.1,628.4 L 392.5,628.5 L 400.8,618.1 L 409.2,619.2 L 417.5,603.8 L 425.9,608.0 L 434.2,605.1 L 442.6,600.8 L 450.9,600.9 L 459.3,578.3 L 467.7,599.3 L 476.0,599.3 L 484.4,590.7 L 492.7,608.0 L 501.1,573.3 L 509.4,583.3 L 517.8,572.8 L 526.1,573.7 L 534.5,549.1 L 542.8,559.9 L 551.2,572.5 L 559.6,529.9 L 567.9,549.3 L 576.3,526.8 L 584.6,548.2 L 593.0,508.4 L 601.3,516.4 L 609.7,506.9 L 618.0,499.8 L 626.4,494.7 L 634.7,514.0 L 643.1,496.3 L 651.5,501.0 L 659.8,494.6 L 668.2,493.4 L 676.5,467.4 L 684.9,446.5 L 693.2,460.2 L 701.6,450.4 L 709.9,445 L 718.3,475.9 L 726.6,445.7 L 735.0,445"
          fill="none" stroke="#4a9eff" stroke-width="1.8" stroke-linejoin="round" stroke-linecap="round" filter="url(#lineGlow)"
          stroke-dasharray="3200" stroke-dashoffset="3200">
      <animate attributeName="stroke-dashoffset" from="3200" to="0" dur="3s" begin="1.8s" fill="freeze"/>
    </path>
  </g>

  <!-- Annotations and key points -->
  <g opacity="0">
    <animate attributeName="opacity" values="0;1" dur="0.5s" begin="4.9s" fill="freeze"/>

    <!-- Start point -->
    <circle cx="83.4" cy="665" r="4" fill="#4a9eff" filter="url(#softGlow)"/>
    <circle cx="83.4" cy="665" r="2" fill="#ffffff"/>

    <!-- Middle inflection point (around month 8) -->
    <circle cx="409.2" cy="619.2" r="4" fill="#4a9eff" filter="url(#softGlow)"/>
    <circle cx="409.2" cy="619.2" r="2" fill="#ffffff"/>

    <!-- End point (pulsing) -->
    <circle cx="735" cy="445" r="6" fill="#4a9eff" filter="url(#strongGlow)">
      <animate attributeName="r" values="6;11;6" dur="2s" repeatCount="indefinite"/>
      <animate attributeName="opacity" values="1;0.3;1" dur="2s" repeatCount="indefinite"/>
    </circle>
    <circle cx="735" cy="445" r="4" fill="#ffffff"/>

    <!-- Start annotation (positioned so it's visible, above baseline) -->
    <g transform="translate(100, 640)">
      <rect x="0" y="-14" width="80" height="22" rx="11" fill="#ffffff" fill-opacity="0.08" stroke="#4a9eff" stroke-opacity="0.5" stroke-width="0.8"/>
      <text x="40" y="1" fill="#a8b8d0" font-size="10" text-anchor="middle">50 visits/day</text>
      <!-- Line pointing to start -->
      <line x1="0" y1="-3" x2="-16" y2="25" stroke="#4a9eff" stroke-opacity="0.4" stroke-width="0.8" stroke-dasharray="2,2"/>
    </g>

    <!-- End annotation (positioned above and left of end point so it stays inside card) -->
    <g transform="translate(625, 470)">
      <rect x="0" y="-14" width="95" height="22" rx="11" fill="#3de688" fill-opacity="0.15" stroke="#3de688" stroke-opacity="0.6" stroke-width="0.8"/>
      <text x="47" y="1" fill="#76ecaa" font-size="10" font-weight="600" text-anchor="middle">12,000+ /day</text>
      <line x1="95" y1="-3" x2="110" y2="-22" stroke="#3de688" stroke-opacity="0.5" stroke-width="0.8" stroke-dasharray="2,2"/>
    </g>
  </g>

  <!-- Moving pulse along the curve -->
  <g opacity="0">
    <animate attributeName="opacity" values="0;1" dur="0.5s" begin="5.1s" fill="freeze"/>
    <circle r="5" fill="#ffffff" filter="url(#strongGlow)">
      <animateMotion dur="7s" begin="5.1s" repeatCount="indefinite" path="M 75.0,665 L 125.1,665 L 175.3,659.9 L 225.4,656.3 L 275.5,652.3 L 325.6,636.7 L 375.8,635.6 L 425.9,608.0 L 476.0,599.3 L 526.1,573.7 L 576.3,526.8 L 626.4,494.7 L 676.5,467.4 L 726.6,445.7"/>
      <animate attributeName="opacity" values="0;1;1;0" dur="7s" begin="5.1s" repeatCount="indefinite"/>
    </circle>
  </g>

  <!-- ============ BOTTOM: TOOLS & STRATEGY ============ -->
  <g opacity="0">
    <animate attributeName="opacity" values="0;1" dur="0.6s" begin="2s" fill="freeze"/>

    <rect x="40" y="745" width="720" height="220" rx="14" fill="url(#glassGrad)" stroke="#2a4a6f" stroke-width="1"/>

    <text x="60" y="775" fill="#ffffff" font-size="14" font-weight="600">Tools &amp; Strategy</text>
    <text x="60" y="793" fill="#8fa8c8" font-size="11">The complete stack behind the growth</text>

    <line x1="60" y1="808" x2="740" y2="808" stroke="#3a5a7f" stroke-opacity="0.4" stroke-width="0.8"/>
  </g>

  <!-- Tool pills - Row 1 -->
  <g opacity="0">
    <animate attributeName="opacity" values="0;1" dur="0.4s" begin="2.3s" fill="freeze"/>
    <rect x="60" y="830" width="165" height="50" rx="10" fill="#4a9eff" fill-opacity="0.08" stroke="#4a9eff" stroke-opacity="0.4" stroke-width="1"/>
    <g transform="translate(80, 855)">
      <circle cx="0" cy="0" r="11" fill="#ffffff" opacity="0.1"/>
      <g transform="scale(0.5) translate(-13, -13)">
        <path d="M 13.5 11 L 13.5 16 L 20 16 Q 19 20 13.5 20 Q 7 20 7 13.5 Q 7 7 13.5 7 Q 16.5 7 18.5 9 L 22 5.5 Q 19 3 13.5 3 Q 4 3 4 13.5 Q 4 24 13.5 24 Q 23 24 23 14 L 23 11 Z" fill="#4285F4"/>
        <path d="M 13.5 11 L 13.5 16 L 20 16 Q 19 19 17 20.5 L 21 23 Q 23 20 23 14 L 23 11 Z" fill="#34A853" opacity="0.9"/>
        <path d="M 7 13.5 Q 7 11 8 9.5 L 4.5 7 Q 3 10 3 13.5 Q 3 17 4.5 20 L 8 17.5 Q 7 16 7 13.5 Z" fill="#FBBC05"/>
        <path d="M 13.5 7 Q 16.5 7 18.5 9 L 22 5.5 Q 19 3 13.5 3 Q 8.5 3 5 6.5 L 8 9.5 Q 10 7 13.5 7 Z" fill="#EA4335"/>
      </g>
    </g>
    <text x="100" y="852" fill="#ffffff" font-size="11" font-weight="600">Search Console</text>
    <text x="100" y="867" fill="#7dbaff" font-size="9">Performance tracking</text>
  </g>

  <g opacity="0">
    <animate attributeName="opacity" values="0;1" dur="0.4s" begin="2.4s" fill="freeze"/>
    <rect x="240" y="830" width="165" height="50" rx="10" fill="#ff5a6e" fill-opacity="0.08" stroke="#ff5a6e" stroke-opacity="0.4" stroke-width="1"/>
    <g transform="translate(260, 855)">
      <circle cx="0" cy="0" r="11" fill="#ff5a6e" fill-opacity="0.15"/>
      <text x="0" y="4" fill="#ff5a6e" font-size="11" font-weight="700" text-anchor="middle">Ah</text>
    </g>
    <text x="280" y="852" fill="#ffffff" font-size="11" font-weight="600">Ahrefs</text>
    <text x="280" y="867" fill="#ff8a9a" font-size="9">Backlink &amp; keyword research</text>
  </g>

  <g opacity="0">
    <animate attributeName="opacity" values="0;1" dur="0.4s" begin="2.5s" fill="freeze"/>
    <rect x="420" y="830" width="165" height="50" rx="10" fill="#f5c431" fill-opacity="0.08" stroke="#f5c431" stroke-opacity="0.4" stroke-width="1"/>
    <g transform="translate(440, 855)">
      <circle cx="0" cy="0" r="11" fill="#f5c431" fill-opacity="0.15"/>
      <text x="0" y="4" fill="#f5c431" font-size="11" font-weight="700" text-anchor="middle">Sr</text>
    </g>
    <text x="460" y="852" fill="#ffffff" font-size="11" font-weight="600">Semrush</text>
    <text x="460" y="867" fill="#f9d766" font-size="9">Competitor analysis</text>
  </g>

  <g opacity="0">
    <animate attributeName="opacity" values="0;1" dur="0.4s" begin="2.6s" fill="freeze"/>
    <rect x="600" y="830" width="140" height="50" rx="10" fill="#3de688" fill-opacity="0.08" stroke="#3de688" stroke-opacity="0.4" stroke-width="1"/>
    <g transform="translate(620, 855)">
      <circle cx="0" cy="0" r="11" fill="#3de688" fill-opacity="0.15"/>
      <g stroke="#3de688" stroke-width="1.5" fill="none" stroke-linecap="round" stroke-linejoin="round" transform="translate(-5, -5)">
        <path d="M 1 8 L 4 5 L 6 7 L 9 2"/>
      </g>
    </g>
    <text x="640" y="852" fill="#ffffff" font-size="11" font-weight="600">On-Page SEO</text>
    <text x="640" y="867" fill="#76ecaa" font-size="9">Technical optimization</text>
  </g>

  <!-- Row 2 -->
  <g opacity="0">
    <animate attributeName="opacity" values="0;1" dur="0.4s" begin="2.7s" fill="freeze"/>
    <rect x="60" y="895" width="165" height="50" rx="10" fill="#a78bfa" fill-opacity="0.08" stroke="#a78bfa" stroke-opacity="0.4" stroke-width="1"/>
    <g transform="translate(80, 920)">
      <circle cx="0" cy="0" r="11" fill="#a78bfa" fill-opacity="0.15"/>
      <g stroke="#a78bfa" stroke-width="1.4" fill="none" transform="translate(-5, -5)">
        <path d="M 1 1 L 9 1 M 1 5 L 9 5 M 1 9 L 6 9"/>
      </g>
    </g>
    <text x="100" y="917" fill="#ffffff" font-size="11" font-weight="600">Content Strategy</text>
    <text x="100" y="932" fill="#c4b0fc" font-size="9">Editorial planning</text>
  </g>

  <g opacity="0">
    <animate attributeName="opacity" values="0;1" dur="0.4s" begin="2.8s" fill="freeze"/>
    <rect x="240" y="895" width="165" height="50" rx="10" fill="#4a9eff" fill-opacity="0.08" stroke="#4a9eff" stroke-opacity="0.4" stroke-width="1"/>
    <g transform="translate(260, 920)">
      <circle cx="0" cy="0" r="11" fill="#4a9eff" fill-opacity="0.15"/>
      <g stroke="#4a9eff" stroke-width="1.5" fill="none" transform="translate(-5, -5)">
        <circle cx="4" cy="4" r="3"/>
        <line x1="6.5" y1="6.5" x2="9" y2="9"/>
      </g>
    </g>
    <text x="280" y="917" fill="#ffffff" font-size="11" font-weight="600">Keyword Targeting</text>
    <text x="280" y="932" fill="#7dbaff" font-size="9">Long-tail &amp; high-intent</text>
  </g>

  <g opacity="0">
    <animate attributeName="opacity" values="0;1" dur="0.4s" begin="2.9s" fill="freeze"/>
    <rect x="420" y="895" width="165" height="50" rx="10" fill="#f59e0b" fill-opacity="0.08" stroke="#f59e0b" stroke-opacity="0.4" stroke-width="1"/>
    <g transform="translate(440, 920)">
      <circle cx="0" cy="0" r="11" fill="#f59e0b" fill-opacity="0.15"/>
      <g stroke="#f59e0b" stroke-width="1.5" fill="none" transform="translate(-5, -5)">
        <rect x="1" y="2" width="8" height="7" rx="1"/>
        <line x1="3" y1="1" x2="3" y2="3"/>
        <line x1="7" y1="1" x2="7" y2="3"/>
      </g>
    </g>
    <text x="460" y="917" fill="#ffffff" font-size="11" font-weight="600">Publishing Cadence</text>
    <text x="460" y="932" fill="#fbbf24" font-size="9">Consistent output</text>
  </g>

  <g opacity="0">
    <animate attributeName="opacity" values="0;1" dur="0.4s" begin="3s" fill="freeze"/>
    <rect x="600" y="895" width="140" height="50" rx="10" fill="#ec4899" fill-opacity="0.08" stroke="#ec4899" stroke-opacity="0.4" stroke-width="1"/>
    <g transform="translate(620, 920)">
      <circle cx="0" cy="0" r="11" fill="#ec4899" fill-opacity="0.15"/>
      <g stroke="#ec4899" stroke-width="1.5" fill="none" transform="translate(-5, -5)">
        <rect x="1" y="1" width="8" height="8" rx="1"/>
        <line x1="3" y1="4" x2="7" y2="4"/>
        <line x1="3" y1="6" x2="6" y2="6"/>
      </g>
    </g>
    <text x="640" y="917" fill="#ffffff" font-size="11" font-weight="600">Product Pages</text>
    <text x="640" y="932" fill="#f9a8d4" font-size="9">E-commerce optimization</text>
  </g>
</svg>
